<?xml version="1.0" standalone="no"?><!DOCTYPE svg PUBLIC "-//W3C//DTD SVG 1.1//EN" "http://www.w3.org/Graphics/SVG/1.1/DTD/svg11.dtd"><svg t="1739101514919" class="icon" viewBox="0 0 1024 1024" version="1.1" xmlns="http://www.w3.org/2000/svg" p-id="2561" xmlns:xlink="http://www.w3.org/1999/xlink" width="200" height="200"><path d="M952.936 92.657l-19.938-19.938c-10.966-10.966-29.879-11.488-42.723-0.57L444.074 451.436c-60.005 51.006-93.519 120.423-66.48 147.463l49.163 49.163c27.04 27.04 96.456-6.474 147.463-66.48l379.286-446.201c10.918-12.845 10.396-31.758-0.57-42.724zM73.296 929.203c-5.84-1.537-9.084-2.522-9.084-2.522s3.567 1.782 9.084 2.522z" p-id="2562" fill="#2c2c2c"></path><path d="M324.938 613.81s-191.199 0-191.199 173.817c0 134.45-41.599 144.101-60.443 141.576 59.14 15.56 386.009 87.906 338.55-228.485l-86.908-86.908z" p-id="2563" fill="#2c2c2c"></path></svg>