<?xml version="1.0" standalone="no"?><!DOCTYPE svg PUBLIC "-//W3C//DTD SVG 1.1//EN" "http://www.w3.org/Graphics/SVG/1.1/DTD/svg11.dtd"><svg t="1739101938888" class="icon" viewBox="0 0 1032 1024" version="1.1" xmlns="http://www.w3.org/2000/svg" p-id="13652" xmlns:xlink="http://www.w3.org/1999/xlink" width="201.5625" height="200"><path d="M964.266667 520.533333c17.066667-25.6 17.066667-59.733333-8.533334-85.333333L580.266667 51.2C571.733333 34.133333 546.133333 34.133333 529.066667 34.133333c-17.066667 0-34.133333 8.533333-51.2 17.066667L264.533333 256l-119.466666-25.6c-25.6 0-42.666667 8.533333-42.666667 34.133333 0 25.6 8.533333 42.666667 34.133333 42.666667l59.733334 8.533333-179.2 170.666667c-17.066667 8.533333-17.066667 25.6-17.066667 51.2 0 17.066667 8.533333 34.133333 17.066667 51.2l375.466666 384c8.533333 17.066667 34.133333 17.066667 51.2 17.066667 17.066667 0 34.133333-8.533333 51.2-17.066667l409.6-401.066667c-34.133333 68.266667-59.733333 170.666667-17.066666 238.933334 17.066667 34.133333 42.666667 42.666667 59.733333 42.666666 17.066667 0 42.666667-8.533333 59.733333-42.666666 59.733333-85.333333-8.533333-230.4-42.666666-290.133334z m-512 392.533334L93.866667 546.133333 307.2 341.333333l196.266667 34.133334c8.533333 0 17.066667 0 25.6-8.533334 17.066667-8.533333 17.066667-25.6 17.066666-42.666666s-17.066667-25.6-34.133333-34.133334l-145.066667-25.6 162.133334-162.133333 358.4 366.933333-435.2 443.733334z" fill="#2c2c2c" p-id="13653"></path></svg>